<svg width="651" height="520" viewBox="0 0 651 520" fill="none" xmlns="http://www.w3.org/2000/svg">
<path d="M127.81 61.4014H82.1016V73.039H127.81V61.4014Z" fill="#EBEBEB"/>
<path d="M442.396 199.222H396.688V210.859H442.396V199.222Z" fill="#EBEBEB"/>
<path d="M102.316 46.7268C94.7243 46.8308 75.2633 47.0908 67.9313 47.1636H56.6083L57.2063 46.6852V58.3228L56.5563 57.8028C64.1483 57.8028 83.5053 57.886 90.8373 57.9692L102.264 58.0836L101.952 58.3228L102.264 46.6852L102.316 46.7268ZM102.316 46.7268L102.615 58.3644V58.614H102.303C96.5963 58.6764 85.1433 58.7804 79.4493 58.8116L56.5953 58.8844H55.9453V58.3644V46.7268V46.2588H56.5303H68.0613C75.3413 46.3212 94.7113 46.5812 102.238 46.6852L102.316 46.7268Z" fill="#EBEBEB"/>
<path d="M231.653 297.44C224.061 297.544 204.6 297.804 197.268 297.866H185.945L186.543 297.398V309.036L185.893 308.516C193.485 308.516 212.842 308.589 220.174 308.672L231.601 308.786L231.289 309.036L231.601 297.398L231.653 297.44ZM231.653 297.44L231.965 309.078V309.317H231.653C225.946 309.317 214.506 309.483 208.799 309.514L185.945 309.587H185.295V309.067V297.43V296.951H185.88L197.411 297.003C204.691 297.066 224.074 297.326 231.588 297.43L231.653 297.44Z" fill="#EBEBEB"/>
<path d="M206.161 282.745C198.569 282.849 179.108 283.109 171.776 283.171H160.453L161.051 282.703V294.341L160.401 293.821C167.993 293.821 187.35 293.893 194.682 293.977L206.109 294.091L205.797 294.341L206.109 282.703L206.161 282.745ZM206.161 282.745L206.473 294.382V294.621H206.161C200.454 294.673 189.001 294.788 183.307 294.819L160.453 294.892H159.803V294.372V282.734V282.256H160.401H171.932C179.212 282.318 198.582 282.578 206.109 282.682L206.161 282.745Z" fill="#EBEBEB"/>
<path d="M180.771 297.419H135.062V309.057H180.771V297.419Z" fill="#EBEBEB"/>
<path d="M594.392 46.7266H548.684V58.3642H594.392V46.7266Z" fill="#EBEBEB"/>
<path d="M568.899 406.099H523.191V417.736H568.899V406.099Z" fill="#EBEBEB"/>
<path d="M594.393 391.425C586.801 391.529 567.34 391.789 560.008 391.861H548.685L549.283 391.383V403.021L548.633 402.501C556.225 402.501 575.582 402.584 582.914 402.667L594.341 402.781L594.029 403.021L594.341 391.383L594.393 391.425ZM594.393 391.425L594.705 403.062V403.312H594.393C588.686 403.374 577.246 403.478 571.539 403.52L548.685 403.582H548.035V403.052L548.1 391.414V390.946H548.685H560.216C567.496 391.009 586.879 391.279 594.393 391.373V391.425Z" fill="#EBEBEB"/>
<path d="M127.809 406.099C120.217 406.203 100.756 406.463 93.4242 406.536H82.1012L82.6992 406.057V417.695L82.0492 417.175L104.903 417.248C110.597 417.248 122.063 417.393 127.757 417.456L127.445 417.695L127.757 406.057L127.809 406.099ZM127.809 406.099L128.121 417.736V417.986H127.809C122.102 418.048 110.649 418.152 104.955 418.194L82.1012 418.256H81.4512V417.726V406.088V405.6H82.0362H93.5672C100.847 405.662 120.217 405.932 127.744 406.026L127.809 406.099Z" fill="#EBEBEB"/>
<path d="M263.192 124.956L260.826 138.476C260.63 139.828 260.094 141.135 259.248 142.317C258.402 143.498 257.266 144.53 255.907 145.35C254.548 146.17 252.995 146.76 251.342 147.086C249.689 147.411 247.971 147.465 246.292 147.243C242.919 146.856 239.875 145.417 237.824 143.241C235.773 141.064 234.882 138.326 235.346 135.626L239.129 113.994C239.129 113.786 239.428 113.817 239.467 113.609C239.246 113.37 239.246 113.37 239.272 113.162C239.836 110.494 241.654 108.099 244.354 106.469C247.054 104.839 250.431 104.097 253.793 104.395C257.64 104.864 261.566 104.718 265.342 103.964C269.118 103.21 272.67 101.864 275.791 100.004C278.912 98.1444 281.54 95.8073 283.524 93.1286C285.507 90.4498 286.807 87.4827 287.346 84.3993C287.885 81.3159 287.654 78.1775 286.666 75.166C285.678 72.1546 283.953 69.33 281.59 66.856C279.227 64.382 276.274 62.3079 272.901 60.7539C269.529 59.1998 265.805 58.1968 261.944 57.8029C256.896 57.2245 251.746 57.7196 247.013 59.2385C242.28 60.7575 238.131 63.2466 234.982 66.4557C233.927 67.5388 232.614 68.444 231.12 69.1191C229.626 69.7943 227.979 70.226 226.275 70.3894C224.571 70.5528 222.843 70.4447 221.191 70.0712C219.54 69.6977 217.997 69.0662 216.652 68.2133C215.333 67.373 214.235 66.3321 213.421 65.1508C212.607 63.9694 212.094 62.6709 211.91 61.33C211.726 59.9891 211.876 58.6325 212.351 57.3381C212.826 56.0438 213.616 54.8374 214.676 53.7885C220.312 48.0322 227.648 43.4862 236.023 40.5591C244.399 37.632 253.552 36.4154 262.661 37.0186C271.77 37.6219 280.549 40.0261 288.209 44.0152C295.869 48.0043 302.17 53.4534 306.546 59.8728C310.923 66.2922 313.237 73.4808 313.281 80.7927C313.325 88.1046 311.098 95.3108 306.799 101.764C302.501 108.217 296.266 113.714 288.654 117.762C281.042 121.81 272.293 124.282 263.192 124.956ZM255.223 170.497L254.56 174.241C254.371 175.596 253.839 176.906 252.997 178.091C252.155 179.277 251.02 180.312 249.661 181.135C248.303 181.959 246.749 182.552 245.095 182.879C243.441 183.207 241.72 183.261 240.039 183.04C236.663 182.658 233.615 181.221 231.562 179.043C229.51 176.865 228.622 174.124 229.093 171.423L229.743 167.679C230.252 164.99 232.057 162.568 234.771 160.931C237.485 159.295 240.893 158.573 244.264 158.922C245.94 159.094 247.557 159.532 249.019 160.21C250.481 160.887 251.76 161.792 252.781 162.869C253.801 163.947 254.542 165.177 254.962 166.487C255.381 167.796 255.47 169.16 255.223 170.497Z" fill="#EBEBEB"/>
<path d="M137.247 189.685L141.03 200.719C141.442 201.81 141.573 202.956 141.414 204.088C141.255 205.22 140.81 206.315 140.106 207.305C139.402 208.295 138.453 209.16 137.318 209.848C136.183 210.536 134.885 211.032 133.503 211.307C130.752 211.91 127.814 211.616 125.333 210.489C122.852 209.362 121.031 207.495 120.269 205.295L114.198 187.615C114.198 187.459 114.367 187.407 114.302 187.231C114.029 187.116 114.029 187.116 113.964 186.939C113.289 184.739 113.693 182.416 115.093 180.447C116.493 178.478 118.783 177.013 121.491 176.352C124.73 175.757 127.785 174.643 130.471 173.077C133.157 171.512 135.42 169.528 137.122 167.245C138.824 164.961 139.931 162.426 140.376 159.791C140.82 157.156 140.594 154.477 139.709 151.914C138.825 149.351 137.301 146.958 135.23 144.879C133.159 142.8 130.583 141.078 127.658 139.816C124.732 138.555 121.518 137.78 118.208 137.539C114.899 137.298 111.562 137.595 108.4 138.413C104.281 139.305 100.529 141.051 97.5232 143.474C94.5172 145.897 92.3633 148.912 91.2791 152.214C90.9241 153.33 90.2949 154.379 89.4282 155.299C88.5615 156.219 87.4746 156.992 86.2308 157.573C84.9871 158.154 83.6113 158.531 82.1836 158.682C80.7559 158.833 79.3049 158.756 77.9151 158.454C76.5533 158.157 75.2783 157.647 74.1635 156.955C73.0486 156.262 72.1158 155.4 71.4188 154.418C70.7217 153.436 70.2741 152.354 70.1017 151.233C69.9293 150.112 70.0354 148.975 70.4141 147.887C72.3566 141.966 76.1074 136.524 81.3296 132.05C86.5518 127.575 93.0818 124.209 100.333 122.253C107.584 120.297 115.328 119.813 122.871 120.844C130.414 121.876 137.518 124.39 143.545 128.161C149.573 131.932 154.335 136.843 157.403 142.45C160.471 148.058 161.75 154.188 161.124 160.289C160.499 166.39 157.988 172.272 153.818 177.404C149.648 182.537 143.949 186.761 137.234 189.695L137.247 189.685ZM150.013 226.813L151.066 229.86C151.478 230.953 151.607 232.102 151.445 233.237C151.284 234.371 150.836 235.468 150.128 236.459C149.42 237.45 148.468 238.316 147.328 239.004C146.189 239.691 144.886 240.186 143.5 240.458C140.747 241.055 137.811 240.757 135.332 239.629C132.853 238.501 131.032 236.634 130.266 234.436L129.2 231.379C128.488 229.177 128.876 226.841 130.281 224.865C131.687 222.888 133.998 221.427 136.727 220.791C138.093 220.474 139.524 220.378 140.937 220.51C142.35 220.642 143.715 221 144.952 221.561C146.189 222.122 147.274 222.876 148.141 223.778C149.008 224.68 149.64 225.712 150 226.813H150.013Z" fill="#EBEBEB"/>
<path d="M204.497 239.293L203.938 247.759C203.901 248.603 203.65 249.432 203.201 250.196C202.752 250.96 202.114 251.643 201.325 252.204C200.536 252.765 199.613 253.192 198.612 253.46C197.611 253.727 196.553 253.829 195.501 253.76C193.39 253.668 191.41 252.911 189.997 251.653C188.583 250.395 187.851 248.741 187.961 247.052L188.845 233.532C188.845 233.407 189.027 233.417 189.04 233.282C189.053 233.147 188.871 233.147 188.884 233.012C189.052 231.338 190.015 229.78 191.574 228.656C193.133 227.533 195.171 226.929 197.269 226.969C199.659 227.071 202.05 226.795 204.307 226.157C206.564 225.52 208.642 224.533 210.422 223.252C212.202 221.972 213.649 220.424 214.681 218.697C215.713 216.969 216.31 215.096 216.437 213.184C216.564 211.272 216.22 209.359 215.422 207.553C214.625 205.748 213.391 204.085 211.791 202.662C210.191 201.238 208.256 200.08 206.097 199.254C203.937 198.428 201.596 197.951 199.206 197.849C196.046 197.707 192.895 198.233 190.07 199.374C187.245 200.515 184.845 202.231 183.112 204.349C182.535 205.067 181.785 205.686 180.907 206.17C180.028 206.654 179.037 206.993 177.993 207.167C176.948 207.341 175.871 207.347 174.824 207.185C173.776 207.023 172.78 206.695 171.893 206.221C171.022 205.758 170.274 205.162 169.693 204.466C169.111 203.771 168.707 202.991 168.504 202.17C168.301 201.349 168.303 200.505 168.51 199.684C168.717 198.864 169.124 198.085 169.709 197.392C172.808 193.589 177.039 190.463 182.023 188.293C187.006 186.123 192.586 184.978 198.26 184.96C203.933 184.943 209.524 186.053 214.528 188.192C219.533 190.331 223.794 193.432 226.93 197.215C230.065 200.998 231.977 205.345 232.492 209.865C233.008 214.385 232.111 218.937 229.883 223.112C227.655 227.286 224.165 230.952 219.727 233.78C215.289 236.608 210.042 238.51 204.458 239.314L204.497 239.293ZM202.612 267.8L202.456 270.14C202.425 270.984 202.181 271.815 201.737 272.582C201.294 273.348 200.66 274.035 199.875 274.6C199.09 275.165 198.169 275.597 197.169 275.869C196.169 276.14 195.111 276.247 194.058 276.182C191.944 276.091 189.963 275.332 188.549 274.072C187.135 272.812 186.404 271.154 186.518 269.464L186.674 267.124C186.814 265.442 187.769 263.87 189.334 262.742C190.9 261.614 192.953 261.018 195.059 261.081C196.11 261.115 197.143 261.318 198.095 261.676C199.048 262.034 199.901 262.541 200.605 263.167C201.308 263.793 201.848 264.526 202.193 265.321C202.538 266.117 202.68 266.959 202.612 267.8Z" fill="#DBDBDB"/>
<path d="M517.809 85.4668H413.783V168.688H517.809V85.4668Z" fill="white"/>
<path d="M408.361 81.1201V172.994H523.216V81.1201H408.361ZM517.808 168.667H413.808V85.4673H517.808V168.667Z" fill="#DBDBDB"/>
<path d="M510.309 152.557V123.791H429.228V152.557H510.309Z" fill="#EBEBEB"/>
<path d="M486.557 143.696V110.458H445.009V143.696H486.557Z" fill="#C7C7C7"/>
<path d="M527.65 81.1299H523.217V173.014H527.65V81.1299Z" fill="#C7C7C7"/>
<path d="M571.565 207.761H467.539V290.981H571.565V207.761Z" fill="white"/>
<path d="M512.583 221.072H485.426V283.847H512.583V221.072Z" fill="#C7C7C7"/>
<path d="M462.131 203.424V295.36H576.973V203.424H462.131ZM571.565 290.981H467.565V207.781H571.565V290.981Z" fill="#DBDBDB"/>
<path d="M540.326 232.752H498.791V265.98H540.326V232.752Z" fill="#EBEBEB"/>
<path d="M581.417 203.424H576.984V295.308H581.417V203.424Z" fill="#C7C7C7"/>
<path d="M62.1719 455.249L128.004 455L193.836 454.906L325.5 454.729L457.164 454.906L522.996 455L588.828 455.249L522.996 455.499L457.164 455.593L325.5 455.769L193.836 455.593L128.004 455.499L62.1719 455.249Z" fill="#263238"/>
<path d="M374.615 252.949C440.213 307.789 521.892 422.469 505.837 445.349C487.949 470.798 396.637 393.942 397.04 389.522C397.365 386.184 366.035 316.722 342.219 266.251C318.403 215.78 358.391 239.388 374.615 252.949Z" fill="#D3766A"/>
<path d="M396.416 389.543C393.712 382.127 351.033 290.566 338.878 261.623C326.723 232.679 338.657 223.912 374.42 250.723C410.183 277.535 488.001 366.569 505.239 413.535C521.853 458.775 492.876 458.422 455.033 437.206C424.041 419.827 396.416 389.543 396.416 389.543Z" fill="#2DBBF8"/>
<path d="M336.004 238.868C335.757 238.795 335.51 238.722 335.25 238.629C335.352 238.372 335.487 238.124 335.653 237.89C336.147 238.046 336.654 238.192 337.161 238.327C341.256 239.367 346.261 239.71 349.862 237.453C350.268 237.199 350.643 236.913 350.98 236.601L351.968 236.996C348.302 240.511 341.256 240.407 336.004 238.868ZM364.279 243.652L363.278 243.017C362.706 243.239 362.134 243.447 361.562 243.641C353.372 246.522 343.258 249.424 336.173 254.291L336.485 255.331C340.249 252.734 344.472 250.596 349.017 248.987C354.022 247.053 359.3 245.524 364.279 243.652ZM373.379 263.162C375.793 260.692 378.473 258.395 381.387 256.298C381.127 256.069 380.854 255.851 380.594 255.633C373.119 260.833 367.763 268.778 360.652 273.822C356.742 276.724 352.042 278.86 346.924 280.062C347.041 280.333 347.158 280.603 347.288 280.873C350.834 280.062 354.18 278.771 357.181 277.057C363.902 273.406 368.4 268.154 373.392 263.121L373.379 263.162ZM410.312 283.754C399.496 295.496 379.879 298.314 362.667 300.394C360.587 300.644 358.507 300.914 356.427 301.247C356.57 301.549 356.7 301.861 356.843 302.173C364.11 300.987 371.585 300.488 378.813 299.167C390.864 296.962 403.513 292.397 411.066 284.534L410.312 283.754ZM425.041 384.977C417.605 383.49 410.845 385.466 404.306 388.233C402.161 389.148 399.99 390.115 397.806 391.02L398.547 391.789C407.361 388.16 415.85 383.636 426.003 386.277C429.318 387.141 432.503 388.836 433.803 391.477C435.493 394.92 433.595 398.508 430.592 401.056C426.393 404.602 420.66 406.017 415.109 407.691L416.071 408.554L420.868 407.057C427.485 404.977 435.259 401.108 435.74 394.743C436.091 389.616 430.865 386.132 425.054 384.977H425.041ZM399.171 321.537C404.371 315.62 409.246 309.473 414.485 303.545C416.747 300.977 419.126 298.345 421.726 295.881L420.985 295.08C419.594 296.39 418.281 297.732 417.007 299.084C411.729 304.689 406.997 310.607 402.083 316.41C394.673 325.157 385.976 335.005 374.562 341.069C374.705 341.391 374.848 341.703 375.004 342.025C384.78 336.836 392.645 328.88 399.184 321.527L399.171 321.537ZM401.771 337.137C401.368 339.677 401.831 342.256 403.113 344.602C404.395 346.948 406.447 348.972 409.051 350.46C415.109 353.788 421.882 351.739 426.185 347.475C428.785 344.958 430.566 342.067 432.841 339.405C435.472 336.273 438.736 333.514 442.5 331.241C444.711 329.931 447.145 328.88 449.728 328.121L448.987 327.216C447.377 327.706 445.828 328.316 444.359 329.036C437.014 332.613 432.542 338.136 428.044 343.804C425.73 346.695 422.948 349.773 418.671 350.865C416.846 351.274 414.918 351.282 413.088 350.888C411.258 350.495 409.594 349.714 408.271 348.629C402.031 343.97 401.628 336.805 406.334 331.324C411.3 325.521 419.893 322.401 428.018 320.321C432.178 319.281 436.468 318.386 440.667 317.315L439.952 316.473C431.502 318.646 422.493 320.165 415.252 323.597C409.025 326.561 402.98 331.178 401.836 337.158L401.771 337.137ZM470.671 355.14C467.157 358.532 462.987 361.453 458.321 363.793C450.705 367.838 441.947 370.297 432.841 370.948C423.833 371.6 414.857 369.451 407.777 364.947C401.602 360.974 396.077 356.045 387.887 354.963C385.566 354.655 383.202 354.616 380.867 354.849C381.036 355.213 381.192 355.566 381.361 355.889C384.576 355.603 387.83 355.872 390.903 356.679C395.219 357.833 398.781 360.194 402.161 362.534C405.302 364.904 408.754 366.997 412.457 368.774C416.099 370.335 420.062 371.36 424.157 371.801C432.328 372.596 440.618 371.701 448.233 369.201C456.462 366.601 465.445 362.129 471.425 356.201L470.671 355.14ZM470.736 444.985C471.945 445.505 473.141 446.025 474.311 446.441C478.323 447.169 482.178 448.368 485.751 449.998C487.259 450.336 488.792 450.6 490.34 450.789C486.385 448.809 482.147 447.216 477.717 446.046C475.445 445.508 473.11 445.16 470.749 445.006L470.736 444.985ZM477.236 364.354L476.664 363.543C465.692 365.425 455.448 371.707 451.366 379.705C448.142 386.017 450.066 392.185 453.472 398.175C455.613 401.524 457.493 404.977 459.101 408.513C460.382 411.764 461.096 415.141 461.22 418.549C461.505 425.123 459.41 431.623 455.188 437.269L456.202 437.83C459.456 433.555 461.489 428.757 462.156 423.78C463.028 417.474 461.906 411.094 458.893 405.226C455.344 398.321 449.312 391.519 451.093 383.677C453.381 374.297 464.99 366.424 477.288 364.375L477.236 364.354ZM505.914 415.553C502.364 416.467 498.724 417.138 495.033 417.561C490.613 417.997 485.283 417.841 482.683 414.441C480.811 411.986 481.149 408.835 482.163 406.193C484.386 400.432 490.21 397.125 495.709 393.474C495.566 393.183 495.397 392.892 495.228 392.601C492.459 394.421 489.547 396.137 487.051 398.05C482.579 401.482 479.251 406.932 480.304 411.986C481.604 418.33 489.664 419.214 496.359 418.382C499.689 417.89 502.972 417.216 506.187 416.365C506.2 416.136 506.07 415.855 505.966 415.574L505.914 415.553Z" fill="white"/>
<path opacity="0.1" d="M455.033 437.206C424.041 419.838 396.416 389.543 396.416 389.543C393.725 382.128 351.02 290.566 338.878 261.623C334.393 250.921 333.184 242.986 335.264 238.587L455.033 437.206Z" fill="black"/>
<path d="M394.309 455.063H140.979C140.979 455.063 192.797 293.967 278.402 227.303C289.881 218.359 334.588 219.867 344.897 233.335C383.52 283.848 395.012 454.345 394.309 455.063Z" fill="#2DBBF8"/>
<path d="M362.095 364.811C352.137 376.126 362.966 391.539 378.839 394.201C382.1 394.733 385.471 394.644 388.68 393.941L388.797 394.981C385.834 395.628 382.736 395.777 379.697 395.418C365.579 393.661 353.697 381.628 357.48 370.167C360.392 361.233 371.78 355.014 383.064 354.733C383.064 355.108 383.181 355.472 383.246 355.846C382.276 355.856 381.307 355.919 380.347 356.033C376.725 356.444 373.243 357.432 370.107 358.94C366.972 360.448 364.247 362.444 362.095 364.811ZM151.859 426.4L151.469 426.14C151.326 426.483 151.196 426.826 151.066 427.18C160.959 433.721 163 445.505 166.172 455.083H167.472C164.092 445.047 162.246 433.472 151.859 426.4ZM194.2 368.16C201.935 367.765 209.8 365.695 214.506 360.505C218.146 356.501 220.044 350.865 217.353 346.185C214.233 340.766 206.615 339.331 199.803 339.466C196.852 339.518 193.94 339.747 191.041 340.007L190.495 341.047C195.221 340.423 200.028 340.294 204.795 340.662C208.981 341.12 213.102 342.586 215.442 345.519C216.372 346.791 216.976 348.198 217.222 349.658C217.467 351.118 217.349 352.603 216.872 354.026C214.896 360.838 207.954 365.133 199.686 366.569C192.367 367.837 184.918 367.151 177.586 366.309L177.118 367.255C182.761 368.006 188.483 368.309 194.2 368.16ZM205.107 443.965C197.723 442.925 185.867 448.562 181.889 440.845C178.899 435.063 183.189 428.605 187.765 424.257C193.342 418.985 200.544 415.043 207.655 411.205C220.785 404.102 252.596 382.356 237.412 373.141C223.255 364.561 205.068 389.594 194.421 397.446C185.009 404.373 171.229 410.644 157.761 410.488L157.371 411.413C170.982 411.601 184.437 405.402 194.551 398.694C207.863 389.875 220.98 366.943 236.359 373.973C249.125 379.808 225.322 400.265 212.14 407.534C205.497 411.205 198.594 414.648 192.536 418.974C187.18 422.781 181.928 427.481 180.303 433.222C179.107 437.465 179.718 442.915 185.113 445.141C188.545 446.565 192.432 446.025 196.059 445.473C200.622 444.766 204.899 444.34 209.137 446.181C211.253 447.113 213.106 448.384 214.582 449.914C216.058 451.443 217.125 453.199 217.717 455.073H219.108C219.108 455.073 219.108 455.073 219.108 455.021C217.327 449.748 211.919 444.985 205.068 443.976L205.107 443.965ZM297.784 315.598C294.585 314.123 290.922 313.415 287.233 313.561C283.545 313.707 279.987 314.699 276.984 316.42C270.484 320.101 266.493 326.05 263.438 331.791C260.032 338.208 256.938 345.311 250.308 350.064C246.72 352.653 241.065 354.921 236.658 352.144C233.785 350.334 232.758 347.141 232.589 344.323C232.342 338.291 236.84 332.592 241.338 328.037C245.992 323.305 251.426 319.113 256.119 314.402C260.474 310.034 264.296 305.042 265.323 299.426C265.83 296.649 265.323 293.644 262.476 291.782C260.018 290.388 256.981 289.807 254 290.16C246.616 290.732 240.311 295.027 235.865 299.52C233.386 302.066 231.21 304.792 229.365 307.663C227.35 310.731 225.855 314.007 223.814 317.023C221.448 320.559 217.379 322.275 212.465 321.069C209.234 320.214 206.431 318.552 204.47 316.326C204.288 316.628 204.106 316.929 203.937 317.231C207.551 320.777 212.959 323.544 218.718 322.046C222.371 321.089 224.334 318.448 225.842 315.806C227.584 312.686 229.274 309.639 231.328 306.685C235.449 300.747 241.182 294.663 249.32 292.032C252.739 290.929 257.12 290.482 260.513 291.907C265.232 293.893 264.634 298.532 263.399 302.037C259.265 313.653 245.602 320.996 237.399 330.657C233.655 335.088 230.548 340.433 231.432 345.914C232.238 350.844 236.632 355.43 243.457 354.234C251.478 352.841 256.704 346.07 259.967 340.6C263.685 334.36 266.181 327.693 271.472 322.161C276.763 316.628 284.888 312.925 293.689 315.328C303.114 317.897 308.509 325.343 308.86 333.008C309.51 347.017 297.16 358.613 284.576 367.068C272.46 375.19 258.771 381.805 247.565 390.801C235.15 400.809 227.072 413.738 224.516 427.689C222.943 436.249 222.956 446.545 227.285 455.041H228.923C227.642 452.524 226.692 449.906 226.089 447.231C222.761 432.941 226.817 417.466 235.761 404.934C244.38 392.86 257.926 384.592 271.641 376.449C283.705 369.283 296.341 361.816 303.972 351.197C312.136 339.997 314.073 322.868 297.745 315.609L297.784 315.598ZM339.995 381.732C339.857 378.555 338.794 375.447 336.892 372.656C334.989 369.865 332.3 367.467 329.036 365.653C326.079 364.028 322.588 363.138 319 363.096C315.413 363.053 311.89 363.86 308.873 365.414C302.62 368.617 298.577 374.285 297.03 379.974C294.781 388.242 296.653 396.729 296.861 405.069C297.206 421.061 291.805 436.795 281.3 450.403C280.065 451.994 278.7 453.523 277.296 455.062H279.064C283.295 450.436 286.822 445.422 289.568 440.128C293.373 433.067 295.957 425.625 297.251 418.007C298.616 409.978 297.979 402.105 297.446 394.087C296.939 386.37 297.251 378.289 302.88 371.696C307.833 365.893 316.491 362.336 325.084 365.227C333.677 368.118 338.5 375.44 338.682 382.72C339.202 397.769 325.682 410.405 316.413 422.521C311.993 428.282 308.028 434.377 306.169 441.012C304.882 445.636 304.688 450.412 305.597 455.093H306.897C305.845 449.782 306.235 444.351 308.041 439.171C312.812 425.651 325.253 415.033 333.196 402.771C337.369 396.24 340.528 389.085 339.956 381.742L339.995 381.732ZM377.76 427.492C372.924 422.874 365.917 419.806 358.26 420.409C351.24 420.961 345.078 424.569 343.57 430.237C341.841 436.789 346.17 443.591 350.655 448.843C352.397 450.923 354.373 452.93 356.258 455.031H357.727C354.191 450.975 350.226 447.127 347.535 442.645C343.635 436.155 342.335 427.253 351.435 423.082C359.118 419.536 368.582 421.595 374.705 426.254C381.335 431.309 384.442 438.526 386.288 445.525C387.107 448.645 387.731 451.765 388.355 455.031H389.59C387.692 445.224 385.846 435.271 377.721 427.523L377.76 427.492ZM297.81 221.946C297.1 222.002 296.398 222.064 295.704 222.133C292.74 224.899 289.32 227.331 285.538 229.361C280.335 232.198 274.568 234.308 268.482 235.601L266.896 237.037C268.367 236.798 269.821 236.496 271.251 236.132C280.78 233.677 291.206 228.737 297.81 221.946ZM299.63 250.785C298.067 248.296 297.666 245.441 298.499 242.736C299.955 237.453 305.233 232.336 312.149 231.452C321.106 230.287 328.178 236.589 336.004 238.867C339.982 240.032 344.974 240.375 348.77 238.95C348.627 238.701 348.471 238.461 348.328 238.233C344.935 239.605 340.697 239.273 337.161 238.326C329.205 236.246 322.861 230.391 314.008 230.474C302.308 230.599 293.338 242.507 298.408 250.9C300.189 253.812 303.608 255.788 306.533 257.868C309.59 259.896 312.038 262.448 313.696 265.335C315.191 268.044 315.981 270.967 316.019 273.928C316.057 276.889 315.342 279.825 313.917 282.557C312.564 285.206 310.289 287.488 307.362 289.132C304.436 290.777 300.981 291.714 297.407 291.834C293.998 291.902 290.614 291.346 287.514 290.209C284.414 289.072 281.68 287.383 279.519 285.272C277.445 283.199 276.264 280.645 276.152 277.992C276.035 274.435 277.712 270.982 278.752 267.592C280.403 262.548 280.65 255.933 273.435 253.625C267.65 251.763 260.799 254.082 256.275 257.025C250.23 260.946 247.786 267.134 244.406 272.521C240.792 278.273 235.514 283.733 226.921 284.357C226.375 284.357 225.842 284.419 225.309 284.419C225.075 284.752 224.841 285.095 224.594 285.459H224.932C231.874 285.511 237.672 282.62 241.689 278.179C246.421 272.979 248.449 266.531 253.025 261.227C256.925 256.724 265.284 252.564 272.33 254.342C282.587 256.932 277.439 267.082 275.749 272.761C274.215 277.888 274.93 282.724 279.467 286.738C287.826 294.112 303.608 295.058 311.772 287.05C320.144 278.793 318.35 265.522 308.847 258.336C305.779 255.954 301.749 253.978 299.63 250.785ZM336.979 280.727C343.882 282.807 351.5 280.259 357.194 277.108C359.61 275.756 361.841 274.205 363.85 272.48L363.538 271.585C362.615 272.376 361.653 273.135 360.665 273.842C354.672 278.096 345.546 282.37 337.33 279.874C328.867 277.305 327.073 269.401 329.751 263.234C332.767 256.235 341.048 251.992 349.017 248.997C350.499 248.442 351.994 247.912 353.502 247.405C353.385 247.135 353.242 246.875 353.099 246.605C340.905 250.837 328.139 256.318 327.398 268.008C327.06 273.395 330.362 278.72 336.979 280.727ZM380.1 337.74C374.906 341.417 368.763 344.133 362.108 345.696C352.813 347.776 343.388 345.966 337.486 339.633C334.948 336.792 333.031 333.627 331.818 330.273C330.219 326.113 329.062 321.63 330.518 317.356C332.884 310.18 341.49 305.687 349.862 303.586C357.038 301.777 364.578 301.173 371.962 300.206C371.871 299.873 371.793 299.541 371.715 299.166C368.673 299.603 365.644 299.988 362.693 300.341C353.918 301.381 344.909 302.837 337.759 307.309C334.508 309.224 331.96 311.803 330.384 314.777C328.808 317.751 328.262 321.009 328.802 324.209C329.829 330.637 333.04 337.729 338.799 342.368C344.558 347.006 352.618 348.327 360.47 346.996C367.819 345.613 374.629 342.802 380.295 338.811C380.204 338.489 380.1 338.114 380.1 337.74Z" fill="white"/>
<path d="M503.47 444.174C485.27 459.254 448.948 460.595 345.247 463.643C330.947 464.069 299.942 383.854 315.23 382.772C334.496 381.41 409.623 379.475 415.135 379.881C461.662 383.365 515.794 433.951 503.47 444.174Z" fill="#D3766A"/>
<path d="M348.601 384.706C348.601 384.706 307.742 377.426 284.797 378.934C254.078 380.941 228.585 392.797 218.276 398.278C196.761 409.718 154.576 449.238 166.757 460.98C177.742 471.567 218.25 429.385 218.25 429.385C218.25 429.385 168.07 466.939 184.216 477.745C200.362 488.55 243.912 437.434 243.912 437.434C243.912 437.434 193.446 476.954 212.296 485.981C226.596 492.814 269.249 448.302 269.249 448.302C269.249 448.302 226.154 482.56 240.428 490.027C256.21 498.347 298.85 459.233 298.85 459.233C339.15 473.481 365.644 467.074 383.792 460.72C388.186 459.181 348.601 384.706 348.601 384.706Z" fill="#D3766A"/>
<path d="M234.565 415.501C228.468 419.744 222.267 424.008 216.664 428.668C211.061 433.327 205.666 438.142 200.622 443.228C188.272 455.635 182.968 464.943 183.371 464.392C192.978 451.475 212.712 434.544 218.315 429.884C223.918 425.225 229.209 420.358 234.799 415.699C234.942 415.553 234.708 415.408 234.565 415.501Z" fill="#263238"/>
<path d="M255.963 431.382C248.475 437.06 240.779 442.489 233.603 448.438C226.427 454.387 220.33 460.481 213.7 466.783C213.193 467.262 213.7 467.324 214.22 466.856C221.136 460.772 228.13 455.572 235.137 449.561C242.144 443.55 248.865 437.299 256.119 431.517C256.262 431.423 256.08 431.299 255.963 431.382Z" fill="#263238"/>
<path d="M277.401 442.364C265.402 450.58 255.301 460.564 245.707 470.538C245.226 471.037 245.876 471.058 246.396 470.538C256.718 461.011 264.713 453.471 277.752 442.655C277.96 442.53 277.648 442.187 277.401 442.364Z" fill="#263238"/>
<path d="M327.191 380.526L399.809 470.174C399.809 470.174 489.509 463.56 506.227 446.93C517.251 435.989 462.352 380.443 410.573 379.715L327.191 380.526Z" fill="#2DBBF8"/>
<path d="M339.957 381.742C340.205 385.816 339.513 389.892 337.916 393.765L337.045 392.725C338.226 389.48 338.778 386.109 338.683 382.73C338.657 381.968 338.579 381.208 338.449 380.453H339.749C339.853 380.869 339.922 381.299 339.957 381.742ZM359.457 420.378L360.237 421.335C365.632 421.512 370.756 423.274 374.628 426.286C381.258 431.34 384.365 438.558 386.211 445.557C387.134 449.02 387.797 452.608 388.486 456.217L390.098 458.214C388.005 447.387 386.705 436.103 377.709 427.523C373.159 423.166 366.659 420.16 359.47 420.378H359.457ZM458.933 405.278C456.333 400.296 452.524 395.377 451.25 390.073L450.041 389.501C450.677 392.516 451.845 395.443 453.512 398.195C455.653 401.545 457.533 404.997 459.141 408.533C460.422 411.784 461.135 415.161 461.26 418.569C461.78 432.266 452.407 445.692 435.325 449.54C419.959 453.003 402.526 447.689 398.223 434.658C396.322 429.109 397.097 423.192 400.394 418.08C404.749 411.622 412.809 409.635 420.843 407.087C427.46 405.007 435.234 401.138 435.715 394.774C436.092 389.574 430.866 386.121 425.055 384.966C417.619 383.479 410.859 385.455 404.32 388.222C396.377 391.581 388.226 395.772 378.84 394.191C374.387 393.376 370.269 391.663 366.879 389.214C363.488 386.766 360.937 383.664 359.47 380.203H357.897C359.493 384.066 362.357 387.514 366.19 390.187C370.023 392.86 374.684 394.66 379.685 395.398C396.585 397.478 409 381.878 425.991 386.256C429.306 387.119 432.491 388.814 433.791 391.456C435.481 394.898 433.583 398.486 430.58 401.034C424.002 406.588 413.68 406.9 406.14 411.237C395.441 417.394 393.504 429.905 398.938 439.026C405.347 449.79 421.415 453.45 435.117 450.549C450.626 447.262 460.506 436.238 462.222 423.769C463.077 417.483 461.951 411.126 458.946 405.278H458.933ZM492.161 418.683L491.212 417.747C487.871 417.674 484.595 416.915 482.723 414.482C481.561 412.853 481.104 410.963 481.423 409.105L480.292 408.2C480.046 409.468 480.046 410.759 480.292 412.027C481.384 417.04 486.701 418.652 492.174 418.683H492.161ZM477.731 446.066C471.595 444.61 464.393 444.35 458.465 446.545C452.147 448.874 449.469 453.825 450.34 459.254C450.655 460.86 451.089 462.451 451.64 464.017L452.732 463.85C451.432 459.586 450.353 455.333 453.252 451.454C456.996 446.462 465.342 445.526 471.959 446.139C480.253 446.909 487.13 450.632 494.254 453.804L495.671 453.232C489.769 450.621 484.101 447.574 477.731 446.066Z" fill="white"/>
<path d="M468.67 399.921C442.605 382.928 433.791 379.995 392.763 379.6C392.425 379.6 392.36 379.943 392.698 379.953C437.691 381.576 458.465 394.877 468.371 400.192C468.631 400.316 468.904 400.077 468.67 399.921Z" fill="#263238"/>
<path d="M426.497 460.075C419.178 449.873 411.17 439.993 403.097 430.134C395.024 420.275 387.042 410.374 378.696 400.691C373.977 395.2 369.297 389.699 364.396 384.343C364.266 384.207 363.941 384.343 364.058 384.499C371.364 394.691 379.32 404.602 387.263 414.482C395.206 424.362 403.305 434.242 411.508 444.028C416.149 449.551 420.907 455.011 425.808 460.367C426.107 460.627 426.718 460.367 426.497 460.075Z" fill="#263238"/>
<path opacity="0.1" d="M418.763 380.266L358.963 419.786L327.152 380.526L410.56 379.715C411.535 379.715 412.523 379.767 413.511 379.819L418.178 380.224L418.763 380.266Z" fill="black"/>
<path d="M247.825 282.714C237.178 378.872 253.818 455.468 304.284 460.991C337.798 464.651 329.4 383.344 329.322 381.607C329.062 375.659 325.201 326.04 301.437 272.064C275.294 212.691 252.583 239.751 247.825 282.714Z" fill="#D3766A"/>
<path d="M247.825 282.714C237.178 378.872 253.818 455.468 304.284 460.991C337.798 464.651 342.491 396.084 342.413 394.347C342.14 388.399 325.201 326.04 301.437 272.064C275.294 212.691 252.583 239.751 247.825 282.714Z" fill="#2DBBF8"/>
<path d="M304.35 278.907C311.695 297.013 318.377 315.307 324.864 333.611C331.039 351.988 337.63 370.344 341.504 389.136C332.703 356.896 315.309 311.24 304.35 278.896V278.907Z" fill="#263238"/>
<path d="M310.564 283.4C312.228 288.6 313.476 294.144 311.942 299.406C312.137 294.133 310.915 288.663 310.564 283.4Z" fill="#263238"/>
<path d="M253.143 261.259C252.558 261.935 252.025 262.621 251.505 263.339C251.774 262.375 252.06 261.429 252.363 260.5C253.516 259.222 254.87 258.068 256.393 257.068C260.917 254.124 267.768 251.805 273.553 253.667C280.768 255.976 280.521 262.59 278.87 267.634C277.765 271.024 276.088 274.477 276.27 278.034C276.382 280.688 277.563 283.241 279.637 285.314C281.797 287.425 284.532 289.114 287.632 290.251C290.732 291.388 294.116 291.944 297.525 291.876C301.527 291.791 305.376 290.626 308.445 288.569C308.588 288.892 308.718 289.214 308.848 289.547C300.255 294.851 287.047 293.332 279.65 286.812C275.113 282.797 274.45 277.961 275.932 272.834C277.622 267.156 282.77 257.005 272.513 254.416C265.402 252.596 257.03 256.756 253.143 261.259ZM265.337 299.458C265.844 296.681 265.337 293.676 262.49 291.814C260.033 290.407 256.991 289.814 254.001 290.16C251.493 290.368 249.06 290.965 246.838 291.918C246.838 292.282 246.76 292.646 246.734 293.01C247.572 292.634 248.44 292.304 249.334 292.022C252.753 290.92 257.134 290.473 260.527 291.897C265.246 293.884 264.648 298.522 263.413 302.027C260.384 310.534 252.246 316.753 244.914 323.264C244.914 323.732 244.914 324.2 244.914 324.657C248.645 321.236 252.61 317.98 256.146 314.424C260.501 310.066 264.31 305.084 265.337 299.458ZM304.064 351.219C312.137 339.997 314.074 322.868 297.746 315.609C294.547 314.134 290.884 313.426 287.195 313.572C283.506 313.718 279.948 314.71 276.946 316.431C270.446 320.112 266.455 326.061 263.4 331.802C259.994 338.219 256.9 345.322 250.27 350.075C248.74 351.196 246.981 352.1 245.07 352.748C245.07 353.122 245.07 353.486 245.135 353.85C252.22 351.874 256.939 345.676 259.968 340.6C263.686 334.36 266.182 327.694 271.473 322.161C276.764 316.628 284.889 312.926 293.69 315.328C303.115 317.897 308.51 325.344 308.861 333.008C309.511 347.017 297.161 358.613 284.577 367.068C273.046 374.796 260.098 381.16 249.217 389.512C249.308 390 249.399 390.489 249.503 390.968C256.443 385.714 263.827 380.849 271.603 376.408C283.797 369.304 296.42 361.837 304.064 351.219ZM333.223 402.699C337.123 396.719 340.074 390.104 340.022 383.313C340.022 382.783 340.022 382.273 339.957 381.743C339.747 378.901 338.865 376.116 337.357 373.537C335.53 370.341 332.627 367.615 328.972 365.664C326.015 364.039 322.523 363.149 318.936 363.107C315.348 363.064 311.825 363.871 308.809 365.425C302.556 368.628 298.513 374.296 296.966 379.985C294.717 388.253 296.589 396.74 296.797 405.08C297.159 421.063 291.781 436.793 281.301 450.404C281.015 450.778 280.716 451.142 280.417 451.516C280.768 451.787 281.132 452.047 281.496 452.307C284.638 448.449 287.34 444.373 289.569 440.128C293.373 433.068 295.958 425.626 297.252 418.008C298.617 409.979 297.98 402.106 297.447 394.088C296.94 386.371 297.252 378.29 302.881 371.696C307.834 365.893 316.492 362.336 325.085 365.228C333.678 368.119 338.501 375.44 338.683 382.72C339.203 397.769 325.683 410.405 316.414 422.521C311.994 428.283 308.029 434.377 306.17 441.012C304.428 447.305 304.701 453.848 306.963 460.034C307.093 460.408 307.249 460.783 307.392 461.157C307.834 461.157 308.276 461.157 308.692 461.084C305.793 453.989 305.571 446.367 308.055 439.172C312.839 425.61 325.28 414.96 333.223 402.699Z" fill="white"/>
<path d="M245.538 295.901C245.395 319.374 246.149 342.878 248.58 366.257C251.661 395.513 260.28 457.184 307.08 460.096C314.412 460.45 321.172 459.306 327.1 455.635C335.979 450.549 343.402 444.008 350.5 437.393C364.631 424.04 377.449 409.22 389.331 394.816L386.484 392.496L389.435 394.732C385.691 399.808 381.726 404.768 377.735 409.698C365.84 423.894 338.397 456.498 318.234 461.168C293.534 465.546 274.97 451.974 264.934 435.23C242.834 397.863 244.134 337.283 245.499 295.87L245.538 295.901Z" fill="#263238"/>
<path d="M243.12 301.715C243.744 306.166 244.654 310.461 245.252 314.912C243.239 310.712 242.508 306.187 243.12 301.715Z" fill="#263238"/>
<path d="M331.324 278.72C331.324 278.72 288.073 247.063 260.968 248.56L238.621 265.512C238.621 265.512 231.146 267.696 228.637 263.921C222.462 254.561 220.356 231.681 244.38 216.165C266.389 201.927 312.838 203.477 343.947 209.155C373.847 214.605 390.747 228.114 382.284 243.808C373.821 259.501 331.324 278.72 331.324 278.72Z" fill="#2DBBF8"/>
<path opacity="0.1" d="M333.989 271.377C333.989 271.377 367.139 251.066 370.168 239.46C373.197 227.853 343.947 217.62 325.175 213.824C296.12 207.927 276.581 209.934 260.968 222.653C245.355 235.373 333.989 271.377 333.989 271.377Z" fill="black"/>
<path d="M338.773 267.509C323.277 269.069 299.773 248.363 291.57 232.503C291.011 231.463 294.43 220.761 297.823 207.657C299.838 199.701 301.853 190.809 302.958 182.583C303.179 180.887 365.761 200.647 365.761 200.647C365.761 200.647 357.116 217.35 355.296 231.702C355.173 232.837 355.173 233.978 355.296 235.113C355.296 235.269 355.296 235.467 355.296 235.685C355.751 242.206 353.749 265.991 338.773 267.509Z" fill="#D3766A"/>
<path d="M348.653 235.384C350.852 235.639 353.075 235.736 355.296 235.675C355.296 235.456 355.296 235.269 355.296 235.103C355.16 233.968 355.16 232.826 355.296 231.692C357.103 217.36 365.696 200.658 365.696 200.658C365.696 200.658 314.892 184.611 304.596 182.666C305.454 192.338 310.706 231.452 348.653 235.384Z" fill="#263238"/>
<path d="M282.445 141.18C280.82 160.368 307.691 209.934 326.983 218.514C354.946 230.994 393.283 225.513 404.541 200.002C415.5 175.261 379.048 111.165 358.196 103.989C327.503 93.4127 284.85 112.829 282.445 141.18Z" fill="#D3766A"/>
<path d="M354.725 161.876C354.621 161.762 354.478 162.147 354.556 162.282C356.48 165.589 357.988 169.624 354.803 172.027C354.699 172.11 354.803 172.266 354.933 172.204C359.301 170.103 357.208 164.757 354.725 161.876Z" fill="#263238"/>
<path d="M349.121 159.661C342.179 161.564 347.418 172.536 353.853 170.778C360.288 169.021 354.945 158.08 349.121 159.661Z" fill="#263238"/>
<path d="M380.568 153.453C380.568 153.307 380.971 153.453 381.036 153.65C382.518 157.093 384.936 160.826 389.343 160.785C389.473 160.785 389.538 160.951 389.343 160.982C384.455 161.887 381.283 156.895 380.568 153.453Z" fill="#263238"/>
<path d="M382.7 148.72C389.33 146.213 395.115 157.04 388.966 159.328C382.817 161.616 377.097 150.8 382.7 148.72Z" fill="#263238"/>
<path d="M343.219 160.098C345.114 159.561 346.971 158.943 348.783 158.247C350.915 157.519 352.683 157.113 353.983 155.491C354.293 155.002 354.39 154.444 354.261 153.906C354.132 153.368 353.782 152.879 353.268 152.517C350.967 151.05 348.068 151.425 345.468 152.225C342.813 152.942 340.588 154.425 339.228 156.385C337.811 158.445 340.619 160.743 343.219 160.098Z" fill="#263238"/>
<path d="M383.012 139.641C381.028 139.904 379.027 140.085 377.019 140.182C374.718 140.369 372.898 140.702 370.779 139.797C370.212 139.489 369.787 139.04 369.571 138.519C369.355 137.998 369.359 137.435 369.583 136.916C370.727 134.743 373.483 133.952 376.226 133.64C378.999 133.248 381.854 133.697 384.234 134.899C386.73 136.105 385.664 139.204 383.012 139.641Z" fill="#263238"/>
<path d="M365.67 193.44C367.061 193.929 368.608 194.709 370.194 194.345C371.763 193.835 373.181 193.066 374.354 192.088C374.376 192.065 374.408 192.048 374.444 192.041C374.481 192.035 374.518 192.039 374.551 192.052C374.584 192.066 374.61 192.089 374.624 192.116C374.638 192.144 374.639 192.175 374.627 192.203C374.338 193.057 373.766 193.834 372.972 194.45C372.178 195.067 371.192 195.501 370.116 195.708C368.062 196.02 366.476 194.98 365.332 193.721C365.176 193.524 365.462 193.347 365.67 193.44Z" fill="#263238"/>
<path d="M368.296 188.063C372.846 184.683 379.996 183.082 384.637 182.156C385.092 181.948 385.17 181.033 385.066 180.638L381.309 173.545C382.726 173.649 389.798 173.94 389.044 172.619C382.778 161.699 375.81 149.552 366.697 139.734C366.642 139.657 366.551 139.601 366.444 139.577C366.336 139.554 366.222 139.565 366.125 139.61C366.029 139.654 365.958 139.727 365.929 139.813C365.9 139.898 365.914 139.99 365.969 140.067C371.468 150.748 379.281 160.597 385.027 171.267C382.817 171.267 379.164 171.174 377.487 171.735C377.071 171.974 381.946 179.078 382.349 180.284C382.349 180.284 372.781 180.898 367.516 186.638C366.138 188.094 366.112 189.675 368.296 188.063Z" fill="#263238"/>
<path d="M296.263 188.24C306.741 187.471 309.744 173.743 309.926 168.272C310.108 162.802 300.514 142.449 301.762 133.952C303.01 125.455 312.851 119.881 321.522 119.392C330.193 118.903 344.168 124.01 349.719 121.847C355.27 119.683 351.929 109.283 355.933 108.067C364.747 105.394 376.733 119.923 382.011 127.171C382.011 127.171 370.636 91.8114 323.862 102.211C281.209 111.571 278.726 138.435 279.857 149.459C282.002 170.477 296.263 188.24 296.263 188.24Z" fill="#1C1C1E"/>
<path d="M358.884 184.319C355.405 185.121 351.715 185.126 348.232 184.332C344.75 183.539 341.616 181.98 339.187 179.833C336.757 177.685 335.13 175.035 334.49 172.184C333.85 169.333 334.223 166.396 335.567 163.706C336.91 161.016 339.171 158.682 342.09 156.969C345.01 155.257 348.472 154.234 352.083 154.017C355.693 153.8 359.307 154.399 362.514 155.744C365.72 157.089 368.39 159.127 370.22 161.626C372.806 165.169 373.53 169.388 372.234 173.357C370.937 177.327 367.726 180.723 363.304 182.801C361.914 183.45 360.43 183.96 358.884 184.319ZM348.9 156.562C347.561 156.868 346.276 157.312 345.078 157.882C341.417 159.609 338.717 162.387 337.526 165.651C336.335 168.915 336.745 172.419 338.67 175.45C340.596 178.481 343.893 180.811 347.891 181.965C351.888 183.119 356.285 183.011 360.187 181.663C364.088 180.315 367.201 177.828 368.89 174.708C370.58 171.588 370.72 168.071 369.281 164.871C367.843 161.672 364.934 159.032 361.148 157.488C357.361 155.944 352.981 155.613 348.9 156.562Z" fill="#EBEBEB"/>
<path d="M399.718 170.394C392.607 172.037 384.118 167.7 380.218 160.254C378.27 156.721 377.756 152.789 378.749 149.011C379.119 147.389 379.97 145.862 381.233 144.558C382.496 143.255 384.132 142.214 386.003 141.523C389.643 140.296 393.803 140.702 397.768 142.626C401.832 144.705 404.982 147.748 406.777 151.33C410.898 159.203 408.298 167.606 400.979 170.05C400.57 170.189 400.148 170.303 399.718 170.394ZM387.901 143.177C387.583 143.249 387.271 143.336 386.965 143.437C385.471 144.002 384.17 144.848 383.172 145.901C382.174 146.955 381.508 148.186 381.232 149.49C380.361 152.838 380.816 156.32 382.532 159.453C386.12 166.265 393.894 170.186 399.913 168.158C405.932 166.13 407.895 158.954 404.32 152.131C402.741 148.952 399.959 146.246 396.364 144.394C395.137 143.731 393.75 143.281 392.293 143.071C390.836 142.862 389.34 142.898 387.901 143.177Z" fill="#EBEBEB"/>
<path d="M370.481 163.478L368.18 162.531C369.935 159.806 374.914 155.251 381.18 157.529L380.127 159.411C374.511 157.373 370.65 163.28 370.481 163.478Z" fill="#EBEBEB"/>
<path d="M293 193.835L290.4 193.669C290.491 192.712 291.479 184.205 296.445 181.73C301.086 179.421 334.301 171.08 335.705 170.727L336.485 172.703C326.956 175.084 301.385 181.688 297.81 183.477C294.508 185.12 293.182 191.506 293 193.835Z" fill="#EBEBEB"/>
<path d="M312.799 181.74C312.799 181.74 293 168.033 284.81 174.106C276.62 180.18 295.301 202.103 307.443 203.164C319.585 204.225 321.015 195.239 321.015 195.239L312.799 181.74Z" fill="#D3766A"/>
<path d="M290.4 180.285C290.359 180.285 290.319 180.298 290.29 180.321C290.261 180.345 290.244 180.376 290.244 180.409C290.244 180.442 290.261 180.474 290.29 180.498C290.319 180.521 290.359 180.534 290.4 180.534C298.98 181.481 304.908 186.421 309.666 191.818C306.624 189.988 303.075 189.364 299.916 192.349C299.76 192.505 300.033 192.723 300.241 192.64C303.244 191.444 305.688 191.423 308.483 193.025C310.4 194.256 312.144 195.651 313.683 197.185C314.229 197.663 315.386 197.112 314.918 196.529C314.891 196.481 314.856 196.435 314.814 196.394C312.5 188.459 301.242 178.881 290.4 180.285Z" fill="#263238"/>
<path d="M333.99 271.378C333.99 271.378 298.513 226.804 256.393 223.424L260.969 248.561C260.969 248.561 285.981 247.937 331.325 278.721L333.99 271.378Z" fill="#2DBBF8"/>
<path d="M249.684 249.299C257.328 248.332 265.011 249.486 272.291 251.109C279.584 252.846 286.606 255.243 293.221 258.253C299.888 261.198 306.302 264.496 312.422 268.123L321.431 273.77L330.128 279.75L331.103 280.426L332.143 279.969C339.828 276.538 347.212 272.692 354.243 268.456C357.799 266.377 361.194 264.126 364.409 261.717C367.654 259.342 370.601 256.719 373.21 253.885C367.204 259.002 360.093 263.048 352.904 266.937C349.29 268.861 345.572 270.671 341.815 272.408C338.058 274.145 334.288 275.902 330.466 277.473L332.468 277.681L323.758 271.493C320.755 269.527 317.687 267.613 314.658 265.71C311.629 263.807 308.275 262.133 304.986 260.51C301.697 258.888 298.317 257.265 294.781 255.934C287.836 253.043 280.457 250.876 272.824 249.486C270.939 249.112 268.989 248.904 267.065 248.644C265.141 248.384 263.165 248.321 261.228 248.301C257.337 248.108 253.433 248.446 249.684 249.299Z" fill="#263238"/>
<path d="M238.621 265.512C242.78 263.08 246.728 260.425 250.438 257.566C254.202 254.754 257.721 251.738 260.968 248.539C256.802 250.964 252.849 253.615 249.138 256.474C245.385 259.296 241.871 262.315 238.621 265.512Z" fill="#263238"/>
<path d="M317.934 262.496C316.603 273.106 316.42 283.789 317.388 294.424C317.999 301.85 324.447 328.172 334.639 326.498C344.831 324.823 326.202 308.818 321.73 295.027C317.206 281.008 320.846 270.629 320.56 262.194L317.934 262.496Z" fill="#2DBBF8"/>
<g opacity="0.1">
<path d="M317.934 262.496C316.603 273.106 316.42 283.789 317.388 294.424C317.999 301.85 324.447 328.172 334.639 326.498C344.831 324.823 326.202 308.818 321.73 295.027C317.206 281.008 320.846 270.629 320.56 262.194L317.934 262.496Z" fill="black"/>
</g>
<path d="M352.697 263.817C357.255 272.772 360.839 282.024 363.409 291.471C365.268 298.054 368.115 322.276 358.716 322.91C349.317 323.545 360.38 305.823 359.834 292.885C359.301 279.761 352.801 271.441 350.318 264.088L352.697 263.817Z" fill="#2DBBF8"/>
<g opacity="0.1">
<path d="M352.697 263.817C357.255 272.772 360.839 282.024 363.409 291.471C365.268 298.054 368.115 322.276 358.716 322.91C349.317 323.545 360.38 305.823 359.834 292.885C359.301 279.761 352.801 271.441 350.318 264.088L352.697 263.817Z" fill="black"/>
</g>
<path d="M313.67 455.156C341.334 451.756 386.665 401.898 415.395 344.916C420.868 334.069 315.594 290.212 311.395 302.276C298.031 340.975 271.862 391.592 272.707 422.812C273.396 447.086 294.547 457.517 313.67 455.156Z" fill="#D3766A"/>
<path d="M362.915 261.207C356.207 254.634 355.18 236.247 349.161 225.41C343.142 214.573 325.501 209.487 322.394 213.471C319.287 217.454 323.889 221.468 325.332 239.273C326.255 250.713 315.296 273.593 319.976 294.393C322.329 304.824 369.701 267.779 362.915 261.207Z" fill="#F7A9A0"/>
<path d="M362.915 261.207C356.207 254.634 355.18 236.247 349.161 225.41C343.142 214.573 325.501 209.487 322.394 213.471C319.287 217.454 323.889 221.468 325.332 239.273C326.255 250.713 315.296 273.593 319.976 294.393C322.329 304.824 369.701 267.779 362.915 261.207Z" fill="#D3766A"/>
<path opacity="0.06" d="M362.915 261.207C356.207 254.634 355.18 236.247 349.161 225.41C343.142 214.573 325.501 209.487 322.394 213.471C319.287 217.454 323.889 221.468 325.332 239.273C326.255 250.713 315.296 273.593 319.976 294.393C322.329 304.824 369.701 267.779 362.915 261.207Z" fill="black"/>
<path d="M415.201 205.285C424.6 212.295 401.018 229.361 401.018 229.361C401.018 229.361 409.585 227.51 417.034 230.838C425.562 234.634 421.844 247.01 421.844 247.01C421.844 247.01 431.009 246.573 438.432 250.713C446.141 255.018 444.607 267.925 444.607 267.925C444.607 267.925 453.421 271.273 456.619 278.533C462.105 290.961 444.919 305.864 436.599 316.773C427.668 328.452 416.462 342.95 410.04 350.147L309.355 309.171C309.355 309.171 326.606 247.572 340.269 237.026C351.826 228.145 400.901 194.563 415.201 205.285Z" fill="#D3766A"/>
<path d="M400.615 229.309C385.535 236.402 372.613 246.365 360.315 256.089C360.259 256.135 360.227 256.197 360.227 256.261C360.227 256.325 360.259 256.387 360.315 256.433C360.372 256.478 360.449 256.504 360.53 256.504C360.61 256.504 360.687 256.478 360.744 256.433C372.873 246.646 388.564 239.221 401.148 229.84C401.236 229.783 401.293 229.701 401.305 229.611C401.317 229.522 401.284 229.432 401.213 229.361C401.143 229.291 401.04 229.246 400.928 229.236C400.816 229.227 400.703 229.253 400.615 229.309Z" fill="#263238"/>
<path d="M420.621 246.563C417.267 248.248 414.628 250.817 411.976 253.126C409.116 255.611 406.308 258.149 403.565 260.707C398.053 265.838 392.701 271.076 387.51 276.422C387.276 276.661 387.679 277.004 387.939 276.765C393.438 271.658 399.041 266.614 404.839 261.706C407.725 259.244 410.637 256.818 413.575 254.426C416.292 252.169 419.412 249.974 421.466 247.27C421.524 247.226 421.57 247.173 421.603 247.114C421.635 247.055 421.653 246.992 421.655 246.928C421.656 246.864 421.642 246.8 421.613 246.74C421.584 246.68 421.541 246.625 421.485 246.579C421.43 246.532 421.363 246.495 421.29 246.469C421.217 246.443 421.137 246.429 421.057 246.428C420.977 246.426 420.897 246.438 420.822 246.461C420.747 246.484 420.679 246.519 420.621 246.563Z" fill="#263238"/>
<path d="M444.412 268.133C441.422 269.505 439.212 272.293 437.015 274.373C434.571 276.758 432.106 279.129 429.618 281.486C424.652 286.197 419.686 290.909 414.512 295.485C414.252 295.713 414.681 296.057 414.941 295.828C420.219 291.2 425.575 286.634 430.801 281.965C433.401 279.677 435.954 277.375 438.458 275.059C440.616 273.093 443.593 270.837 444.711 268.33C444.725 268.298 444.725 268.264 444.714 268.232C444.702 268.2 444.679 268.171 444.646 268.149C444.614 268.128 444.574 268.115 444.533 268.112C444.491 268.109 444.449 268.116 444.412 268.133Z" fill="#263238"/>
<path d="M404.007 203.195C386.912 208.853 366.424 220.875 354.412 228.342C349.929 231.123 345.629 234.087 341.529 237.224C337.551 240.417 334.951 244.504 332.429 248.508C330.7 251.222 329.231 254.041 327.775 256.828C330.375 249.548 333.495 241.81 339.969 236.028C344.014 232.726 348.331 229.644 352.891 226.803C364.981 219.367 377.383 211.827 391.449 206.971L404.007 203.195Z" fill="#263238"/>
<path d="M289.737 324.751L389.382 394.774C389.382 394.774 337.278 462.145 312.981 460.825C288.684 459.504 262.281 446.92 264.27 400.193C264.751 388.493 289.737 324.751 289.737 324.751Z" fill="#2DBBF8"/>
<path d="M271.732 376.48L270.432 377.229C270.614 376.667 270.809 376.106 270.991 375.534C275.606 372.799 280.221 370.053 284.615 367.099C295.704 359.674 306.559 349.815 308.574 337.979L309.562 338.676C308.655 343.068 306.776 347.294 304.011 351.156C296.419 361.837 283.796 369.304 271.732 376.48ZM328.997 365.675C326.039 364.049 322.548 363.159 318.96 363.117C315.373 363.074 311.85 363.881 308.834 365.435C302.581 368.639 298.538 374.307 296.991 379.995C294.742 388.263 296.614 396.75 296.822 405.091C297.174 420.915 291.894 436.493 281.599 450.008C281.95 450.299 282.314 450.58 282.678 450.851C285.309 447.415 287.616 443.828 289.581 440.118C293.385 433.057 295.97 425.616 297.264 417.997C298.629 409.968 297.992 402.095 297.459 394.077C296.952 386.36 297.264 378.279 302.893 371.686C307.846 365.883 316.504 362.326 325.097 365.217C333.69 368.108 338.5 375.44 338.682 382.72C339.202 397.769 325.682 410.405 316.413 422.521C311.993 428.283 308.028 434.377 306.169 441.012C304.427 447.305 304.699 453.848 306.962 460.034C306.99 460.122 307.025 460.209 307.066 460.294L308.457 460.471C305.787 453.546 305.651 446.155 308.067 439.171C312.838 425.651 325.279 415.033 333.222 402.771C337.369 396.334 340.528 389.158 339.956 381.815C339.831 378.626 338.775 375.504 336.872 372.699C334.969 369.895 332.272 367.486 328.997 365.664V365.675ZM358.195 420.451C351.175 421.003 345.013 424.611 343.505 430.279C342.439 434.335 343.687 438.495 345.858 442.312C346.157 442.031 346.482 441.751 346.794 441.47C343.453 435.126 342.894 427.035 351.37 423.124C353.593 422.134 356.055 421.536 358.591 421.371C361.128 421.206 363.679 421.477 366.073 422.167C366.333 421.887 366.58 421.606 366.853 421.325C364.085 420.517 361.127 420.215 358.195 420.441V420.451ZM388.303 394.025C385.188 394.643 381.939 394.69 378.8 394.16C366.528 392.08 357.272 382.429 358.299 372.923L356.999 371.977C354.984 382.845 366.32 393.713 379.684 395.377C382.907 395.752 386.193 395.564 389.317 394.826L389.382 394.732L388.303 394.025Z" fill="white"/>
<path d="M288.633 353.715C293.508 356.97 298.058 360.568 302.686 364.042C307.314 367.516 311.916 371.041 316.453 374.608C325.518 381.743 334.51 388.929 343.428 396.168C345.859 398.154 348.29 400.14 350.682 402.168C353.074 404.196 355.453 406.755 358.04 408.887C358.07 408.923 358.084 408.966 358.079 409.01C358.074 409.053 358.05 409.093 358.011 409.124C357.973 409.155 357.922 409.174 357.868 409.178C357.814 409.182 357.76 409.171 357.715 409.147C355.453 407.431 352.879 405.964 350.565 404.28C348.251 402.595 345.82 400.744 343.48 398.944C338.904 395.415 334.345 391.872 329.804 388.316C320.704 381.202 311.695 374.036 302.92 366.694C297.967 362.534 292.806 358.457 288.165 354.079C288.104 354.029 288.071 353.962 288.072 353.893C288.074 353.824 288.109 353.758 288.171 353.71C288.233 353.661 288.317 353.635 288.403 353.636C288.49 353.637 288.572 353.665 288.633 353.715Z" fill="#263238"/>
<path d="M301.022 332.686L289.504 324.969L290.063 324.844C284.59 341.36 278.545 357.75 272.877 374.213C270.259 381.332 268.09 388.552 266.377 395.845C264.893 405.34 264.858 414.944 266.273 424.445C263.409 415.008 262.487 405.26 263.543 395.585C266.364 379.621 272.76 364.219 278.714 348.879C282.107 340.611 285.695 332.405 289.582 324.272L289.959 324.543L301.009 332.686H301.022Z" fill="#263238"/>
<path d="M586.709 355.992C569.653 374.463 551.882 395.897 547.553 419.058C547.553 419.401 548.203 419.515 548.307 419.172C550.268 412.856 552.788 406.659 555.847 400.629C567.053 398.164 578.051 396.136 583.94 387.234C589.946 378.082 589.14 366.163 588.035 356.19C587.957 355.68 587.047 355.68 586.709 355.992Z" fill="#2DBBF8"/>
<path d="M556.016 400.452C563.673 386.703 573.501 372.902 585.994 361.598C586.012 361.582 586.036 361.573 586.061 361.572C586.087 361.571 586.112 361.579 586.131 361.592C586.15 361.606 586.161 361.625 586.162 361.646C586.164 361.666 586.155 361.686 586.137 361.702C577.96 369.762 571.733 378.529 565.662 387.452C571.317 382.866 577.492 378.758 582.848 373.932C582.952 373.828 583.121 373.932 583.017 374.067C577.7 379.163 571.902 384.696 564.999 388.471C563.145 391.203 561.268 393.945 559.37 396.698C559.838 396.49 560.319 396.302 560.787 396.115C560.878 396.115 560.943 396.188 560.865 396.219C560.332 396.438 559.812 396.656 559.266 396.843C558.369 398.143 557.485 399.443 556.562 400.743C556.354 400.993 555.847 400.743 556.016 400.452Z" fill="#263238"/>
<path d="M561.709 395.657C566.29 393.6 570.667 391.264 574.8 388.669C574.904 388.596 575.073 388.669 574.956 388.793C570.974 391.554 566.613 393.944 561.956 395.917C561.683 396.001 561.501 395.751 561.709 395.657Z" fill="#263238"/>
<path d="M545.577 415.615C545.577 415.896 546.214 415.885 546.201 415.615C546.292 407.992 546.201 400.327 546.357 392.662C548.801 388.721 554.04 386.537 557.693 383.385C560.313 381.074 562.594 378.53 564.492 375.804C568.881 369.292 571.566 362.134 572.383 354.765C573.384 346.611 569.51 319.685 565.22 320.621C562.984 321.1 555.769 334.443 553.858 338.842C550.755 346.116 548.484 353.6 547.072 361.202C543.588 379.121 543.9 397.55 545.577 415.615Z" fill="#2DBBF8"/>
<path d="M545.511 382.72C546.031 373.069 548.748 363.324 551.283 353.964C554.026 343.876 557.237 334.381 563.724 325.385C563.841 325.218 564.153 325.385 564.036 325.541C559.713 332.537 556.365 339.892 554.052 347.474C554.494 346.923 555.014 346.434 555.469 345.893C555.651 345.696 556.067 345.893 555.885 346.091C555.308 346.907 554.629 347.674 553.857 348.379C553.832 348.386 553.805 348.386 553.779 348.379C551.543 355.586 549.944 362.939 548.579 370.313L548.891 370.032C548.956 369.969 549.073 370.032 549.034 370.115C548.865 370.365 548.67 370.604 548.488 370.853C547.786 374.587 547.188 378.31 546.512 382.002C554.819 376.324 561.904 369.626 565.908 361.369C565.908 361.369 566.012 361.369 565.986 361.369C562.086 369.928 555.885 377.53 546.369 382.73C546.2 383.77 546.031 384.717 545.849 385.705C545.849 385.913 545.407 385.861 545.407 385.705C545.407 384.821 545.407 383.937 545.511 383.063C545.473 383.046 545.442 383.021 545.42 382.991C545.398 382.961 545.387 382.926 545.387 382.891C545.387 382.857 545.398 382.822 545.42 382.792C545.442 382.762 545.473 382.737 545.511 382.72Z" fill="#263238"/>
<path d="M549.425 368.722C555.782 361.14 561.71 353.777 566.325 345.405C566.325 345.311 566.585 345.405 566.533 345.467C562.633 353.787 557.134 362.232 549.724 368.919C549.594 369.054 549.295 368.878 549.425 368.722Z" fill="#263238"/>
<path d="M557.862 343.533C560.462 339.81 563.27 336.18 565.74 332.384C565.818 332.28 566 332.384 565.935 332.478C563.911 336.441 561.343 340.211 558.278 343.72C558.096 343.907 557.719 343.741 557.862 343.533Z" fill="#263238"/>
<path d="M556.898 345.145V345.215C556.898 345.215 556.785 345.145 556.898 345.145Z" fill="#263238"/>
<path d="M539.129 393.556C539.003 398.612 538.258 403.645 536.906 408.584C536.997 409.125 537.101 409.624 537.192 410.228C539.146 404.77 540.277 399.145 540.559 393.473C540.618 393.394 540.648 393.305 540.648 393.213C540.648 393.122 540.618 393.032 540.559 392.953C540.842 385.345 540.145 377.734 538.479 370.24C535.528 356.231 529.08 342.773 516.86 332.269C516.76 332.209 516.644 332.166 516.521 332.145C516.399 332.123 516.272 332.122 516.149 332.143C516.026 332.164 515.909 332.205 515.808 332.265C515.707 332.324 515.622 332.4 515.56 332.488C510.633 342.524 512.349 354.494 516.548 364.499C518.834 369.916 522.102 375.035 526.246 379.693C530.38 384.415 535.723 388.398 539.129 393.556Z" fill="#2DBBF8"/>
<path d="M518.304 336.96C529.887 351.999 537.947 369.824 538.922 387.587C538.922 387.899 538.285 387.983 538.233 387.66C537.96 386.069 537.648 384.488 537.336 382.918C532.539 379.247 527.625 375.378 524.193 370.781C524.193 370.708 524.284 370.604 524.362 370.687C528.342 374.586 532.605 378.295 537.128 381.795C536.261 377.87 535.269 374.005 534.151 370.199C533.839 369.907 533.54 369.616 533.228 369.335C532.916 369.055 533.371 368.867 533.579 369.065L533.851 369.304C532.224 364.083 530.201 358.947 527.793 353.923C524.855 351.115 521.554 348.723 519.409 345.291C519.4 345.274 519.399 345.256 519.406 345.239C519.413 345.222 519.427 345.208 519.446 345.199C519.465 345.19 519.488 345.187 519.51 345.191C519.532 345.194 519.551 345.204 519.565 345.218C521.294 347.163 522.957 349.107 524.92 350.907C525.7 351.624 526.559 352.29 527.365 352.987C524.701 347.535 521.538 342.248 517.901 337.168C517.892 337.128 517.898 337.086 517.918 337.049C517.939 337.011 517.972 336.979 518.016 336.957C518.059 336.935 518.109 336.923 518.16 336.924C518.211 336.924 518.261 336.937 518.304 336.96Z" fill="#263238"/>
<path d="M520.642 355.514C524.386 359.539 528.65 363.387 532.134 367.557C532.238 367.672 532.017 367.796 531.887 367.703C527.415 364.343 523.632 359.768 520.395 355.628C520.291 355.504 520.499 355.389 520.642 355.514Z" fill="#263238"/>
<path d="M532.653 368.482L532.808 368.617C532.925 368.7 532.808 368.835 532.64 368.752L532.485 368.627C532.368 368.534 532.55 368.399 532.653 368.482Z" fill="#263238"/>
<path d="M500.155 365.872C501.091 373.61 506.174 382.845 512.375 388.804C515.103 391.399 518.483 393.508 522.294 394.992C526.584 396.698 531.082 398.653 535.515 400.047C537.629 404.344 539.197 408.8 540.195 413.348L540.624 412.173C537.777 392.59 521.93 375.846 501.624 365.103C501.467 365.027 501.286 364.989 501.103 364.991C500.919 364.994 500.741 365.038 500.587 365.119C500.434 365.199 500.312 365.312 500.235 365.446C500.159 365.579 500.131 365.727 500.155 365.872Z" fill="#2DBBF8"/>
<path d="M507.161 371.654C507.018 371.55 507.161 371.353 507.369 371.446C518.506 378.068 527.383 386.823 533.187 396.906C533.33 397.166 532.875 397.405 532.68 397.134C531.744 395.814 530.782 394.534 529.807 393.266C525.179 392.569 520.798 389.958 517.366 387.483C517.275 387.421 517.366 387.317 517.496 387.379C519.269 388.669 521.239 389.773 523.359 390.666C525.244 391.435 527.259 391.914 529.235 392.527C527.502 390.357 525.712 388.277 523.866 386.287C518.872 384.771 514.189 382.668 509.969 380.047C509.952 380.042 509.936 380.033 509.922 380.023C509.909 380.012 509.899 379.999 509.893 379.984C509.887 379.97 509.884 379.955 509.886 379.94C509.888 379.925 509.894 379.91 509.904 379.897C509.913 379.884 509.926 379.873 509.942 379.864C509.957 379.856 509.975 379.85 509.994 379.848C510.012 379.845 510.031 379.846 510.05 379.85C510.068 379.854 510.085 379.861 510.099 379.87C514.279 381.896 518.593 383.739 523.021 385.393C520.199 382.417 517.16 379.576 513.921 376.886C512.348 376.22 510.749 375.554 509.228 374.806C509.203 374.792 509.184 374.772 509.176 374.748C509.167 374.725 509.17 374.699 509.182 374.677C509.194 374.655 509.216 374.637 509.244 374.626C509.271 374.615 509.303 374.612 509.332 374.618C510.598 374.975 511.806 375.45 512.933 376.033C511.061 374.546 509.176 373.079 507.161 371.654Z" fill="#263238"/>
<path d="M507.591 378.414C507.864 378.548 508.125 378.697 508.371 378.861C508.449 378.861 508.371 378.997 508.267 378.966C508 378.844 507.744 378.708 507.5 378.56C507.318 378.56 507.5 378.341 507.591 378.414Z" fill="#263238"/>
<path d="M572.253 455.77H516.717L521.202 415.314L522.19 406.391H566.793L567.768 415.314L572.253 455.77Z" fill="#455A64"/>
<path d="M567.767 415.314H521.201L522.189 406.391H566.792L567.767 415.314Z" fill="#263238"/>
<path d="M569.444 400.15H519.537V408.98H569.444V400.15Z" fill="#455A64"/>
<path d="M463.208 139.027C463.437 141.174 462.866 143.327 461.565 145.214C460.265 147.101 458.295 148.638 455.903 149.63C453.512 150.621 450.807 151.023 448.129 150.785C445.452 150.548 442.923 149.68 440.862 148.293C438.801 146.905 437.3 145.06 436.55 142.991C435.799 140.921 435.832 138.72 436.644 136.666C437.457 134.611 439.012 132.795 441.114 131.448C443.216 130.1 445.77 129.281 448.453 129.095C450.238 128.971 452.035 129.129 453.743 129.561C455.45 129.993 457.035 130.691 458.405 131.613C459.776 132.536 460.905 133.665 461.73 134.937C462.554 136.209 463.056 137.599 463.208 139.027Z" fill="white"/>
<path d="M463.208 139.027C464.378 148.72 449.961 154.856 440.497 148.647C439.063 147.693 437.88 146.521 437.015 145.199C436.151 143.876 435.623 142.43 435.463 140.943C435.302 139.457 435.511 137.959 436.079 136.538C436.646 135.117 437.56 133.799 438.768 132.662C446.75 125.237 462.285 129.303 463.208 139.027ZM463.208 139.027C462.155 129.532 447.075 125.85 439.626 133.234C437.458 135.377 436.41 138.109 436.703 140.856C436.997 143.603 438.608 146.153 441.199 147.971C450.117 154.211 464.196 148.512 463.195 139.027H463.208Z" fill="#263238"/>
<path d="M427.095 150.342C427.223 151.537 426.906 152.735 426.183 153.785C425.46 154.835 424.364 155.691 423.033 156.243C421.702 156.795 420.197 157.019 418.708 156.886C417.218 156.754 415.811 156.271 414.664 155.499C413.517 154.727 412.682 153.701 412.265 152.549C411.847 151.397 411.866 150.173 412.319 149.029C412.771 147.886 413.637 146.876 414.807 146.127C415.977 145.378 417.399 144.923 418.892 144.819C420.895 144.684 422.883 145.189 424.42 146.224C425.958 147.26 426.92 148.74 427.095 150.342Z" fill="white"/>
<path d="M427.095 150.342C427.202 151.387 426.983 152.437 426.458 153.398C425.933 154.358 425.118 155.2 424.086 155.846C423.055 156.493 421.838 156.925 420.547 157.102C419.255 157.28 417.928 157.199 416.686 156.865C415.443 156.532 414.323 155.956 413.427 155.191C412.531 154.426 411.886 153.495 411.551 152.482C411.215 151.468 411.2 150.404 411.505 149.384C411.811 148.364 412.428 147.421 413.302 146.64C414.336 145.726 415.68 145.074 417.171 144.761C418.661 144.448 420.232 144.489 421.694 144.878C423.156 145.267 424.445 145.988 425.404 146.952C426.362 147.917 426.95 149.084 427.095 150.311V150.342ZM427.095 150.342C425.951 142.677 412.093 143.696 412.639 151.382C413.744 158.995 427.615 158.09 427.095 150.342Z" fill="#263238"/>
<path d="M582.224 92.2795C583.063 97.8177 582.068 103.435 579.34 108.569C576.612 113.703 572.246 118.174 566.678 121.534C561.111 124.893 554.538 127.024 547.618 127.712C540.698 128.4 533.673 127.622 527.247 125.455C524.123 128.72 520.099 131.364 515.488 133.18C510.877 134.997 505.805 135.937 500.665 135.928C495.526 135.919 490.459 134.961 485.858 133.128C481.258 131.295 477.248 128.637 474.142 125.362C472.687 125.718 471.194 125.968 469.683 126.111C464.487 126.617 459.218 125.907 454.515 124.068C449.813 122.228 445.877 119.338 443.186 115.746C440.494 112.154 439.161 108.015 439.348 103.83C439.536 99.6453 441.236 95.5934 444.242 92.1651C438.365 86.1973 435.35 78.7449 435.741 71.1541C436.132 63.5633 439.903 56.3347 446.374 50.7739C452.844 45.2132 461.587 41.687 471.024 40.8324C480.46 39.9778 489.967 41.8511 497.828 46.1139C501.511 42.4303 506.348 39.5927 511.846 37.8899C517.345 36.187 523.309 35.6796 529.133 36.4192C534.956 37.1589 540.431 39.1192 545 42.1008C549.569 45.0823 553.069 48.9788 555.145 53.3939C556.533 53.0157 557.966 52.7543 559.422 52.6139C563.85 52.1804 568.338 52.8422 572.282 54.5102C576.226 56.1782 579.436 58.7724 581.482 61.9438C583.528 65.1153 584.311 68.7119 583.725 72.2499C583.14 75.7879 581.214 79.0976 578.207 81.7338C580.318 85.0304 581.678 88.6014 582.224 92.2795Z" fill="white"/>
<path d="M582.223 92.2792C583.065 97.8305 582.073 103.461 579.344 108.61C576.616 113.758 572.247 118.244 566.674 121.619C561.101 124.995 554.518 127.142 547.584 127.846C540.65 128.55 533.606 127.787 527.155 125.632L527.428 125.57C524.283 128.87 520.227 131.545 515.578 133.386C510.928 135.228 505.81 136.186 500.622 136.186C495.434 136.186 490.316 135.228 485.667 133.386C481.017 131.545 476.962 128.87 473.816 125.57L474.258 125.684C472.228 126.184 470.127 126.474 468.005 126.547C445.099 127.681 430.63 106.943 443.799 91.8944V92.456C424.169 72.7688 439.73 43.2016 470.982 40.456C480.524 39.6026 490.131 41.514 498.061 45.8432L497.528 45.916C513.765 29.7024 546.252 33.8728 555.339 53.3312L555.092 53.2376C556.808 52.7672 558.598 52.4907 560.409 52.416C564.79 52.1558 569.168 52.9536 572.976 54.7059C576.783 56.4582 579.846 59.0845 581.767 62.2449C583.689 65.4053 584.38 68.9542 583.752 72.4324C583.124 75.9107 581.206 79.1581 578.245 81.7544C580.369 85.0378 581.722 88.6051 582.236 92.2792H582.223ZM582.223 92.2792C581.664 88.596 580.291 85.0217 578.167 81.7232C581.372 78.8624 583.302 75.2333 583.657 71.4024C584.011 67.5715 582.77 63.7545 580.127 60.5474C577.484 57.3403 573.588 54.9235 569.047 53.6745C564.507 52.4254 559.577 52.4144 555.027 53.6432C546.096 34.476 514.051 30.2952 498.126 46.3632L497.905 46.592L497.593 46.4256C489.821 42.201 480.407 40.3552 471.073 41.2256C440.705 44.0336 425.872 72.6856 444.709 91.8839L444.982 92.1648L444.735 92.4455C431.995 106.891 445.879 126.89 467.953 125.882C470.107 125.81 472.24 125.513 474.297 124.998C477.346 128.282 481.306 130.956 485.865 132.809C490.423 134.663 495.457 135.645 500.571 135.679C505.684 135.714 510.738 134.799 515.335 133.007C519.932 131.215 523.947 128.594 527.064 125.351L527.181 125.237L527.337 125.299C533.741 127.459 540.74 128.236 547.637 127.555C554.534 126.874 561.087 124.757 566.642 121.417C572.196 118.076 576.558 113.628 579.293 108.517C582.027 103.406 583.037 97.8107 582.223 92.2895V92.2792Z" fill="#263238"/>
<path d="M514.325 90.5323L514 94.9315C513.985 95.3698 513.857 95.8009 513.626 96.1985C513.395 96.5961 513.065 96.9518 512.656 97.2439C512.247 97.5359 511.768 97.7582 511.248 97.897C510.728 98.0359 510.178 98.0885 509.632 98.0515C508.537 98.0005 507.511 97.6041 506.78 96.9491C506.049 96.294 505.672 95.4339 505.732 94.5571L506.226 87.5267C506.226 87.4539 506.317 87.4643 506.33 87.3915C506.343 87.3187 506.2 87.3603 506.2 87.2563C506.29 86.3875 506.793 85.5793 507.606 84.9987C508.419 84.4181 509.479 84.1094 510.568 84.1363C511.834 84.2247 513.11 84.1088 514.319 83.7954C515.528 83.482 516.646 82.9775 517.606 82.3119C518.567 81.6463 519.351 80.8331 519.911 79.9206C520.472 79.008 520.797 78.0148 520.869 76.9997C520.94 75.9846 520.756 74.9683 520.327 74.0113C519.898 73.0542 519.233 72.1758 518.372 71.4281C517.511 70.6805 516.471 70.0789 515.313 69.6589C514.156 69.239 512.905 69.0093 511.634 68.9835C509.993 68.9058 508.355 69.1754 506.885 69.7651C505.416 70.3548 504.166 71.2439 503.262 72.3427C502.976 72.7303 502.595 73.0674 502.142 73.3338C501.689 73.6001 501.172 73.7902 500.625 73.8924C500.077 73.9946 499.509 74.0069 498.955 73.9286C498.401 73.8502 497.873 73.6828 497.402 73.4364C496.931 73.1901 496.528 72.8699 496.216 72.4953C495.905 72.1207 495.691 71.6994 495.589 71.2569C495.487 70.8144 495.498 70.3599 495.621 69.9209C495.744 69.4819 495.978 69.0675 496.307 68.7027C497.927 66.7312 500.133 65.1126 502.728 63.9922C505.323 62.8719 508.226 62.285 511.174 62.2842C514.123 62.2834 517.026 62.8688 519.622 63.9878C522.218 65.1068 524.426 66.7243 526.047 68.6949C527.668 70.6655 528.651 72.9275 528.909 75.2775C529.167 77.6275 528.691 79.992 527.523 82.1583C526.356 84.3246 524.534 86.2249 522.221 87.6884C519.908 89.1519 517.177 90.1327 514.273 90.5427L514.325 90.5323ZM513.285 105.342L513.194 106.559C513.177 106.997 513.048 107.427 512.816 107.824C512.585 108.221 512.255 108.576 511.846 108.868C511.438 109.159 510.959 109.382 510.44 109.521C509.921 109.661 509.372 109.714 508.826 109.679C507.731 109.622 506.707 109.223 505.977 108.567C505.247 107.911 504.869 107.051 504.926 106.174L505.017 104.957C505.094 104.084 505.594 103.27 506.409 102.687C507.225 102.105 508.293 101.8 509.385 101.837C509.931 101.857 510.467 101.964 510.961 102.152C511.454 102.34 511.896 102.605 512.259 102.931C512.623 103.258 512.901 103.64 513.077 104.054C513.253 104.468 513.324 104.906 513.285 105.342Z" fill="#2DBBF8"/>
</svg>
