<svg width="52" height="50" viewBox="0 0 52 50" fill="none" xmlns="http://www.w3.org/2000/svg">
<path d="M18.0673 49.5L13.634 42.0333L5.23398 40.1667L6.05065 31.5333L0.333984 25L6.05065 18.4667L5.23398 9.83333L13.634 7.96667L18.0673 0.5L26.0007 3.88333L33.934 0.5L38.3673 7.96667L46.7673 9.83333L45.9507 18.4667L51.6673 25L45.9507 31.5333L46.7673 40.1667L38.3673 42.0333L33.934 49.5L26.0007 46.1167L18.0673 49.5ZM20.0507 43.55L26.0007 40.9833L32.0673 43.55L35.334 37.95L41.7507 36.4333L41.1673 29.9L45.484 25L41.1673 19.9833L41.7507 13.45L35.334 12.05L31.9507 6.45L26.0007 9.01667L19.934 6.45L16.6673 12.05L10.2507 13.45L10.834 19.9833L6.51732 25L10.834 29.9L10.2507 36.55L16.6673 37.95L20.0507 43.55ZM23.5507 33.2833L36.734 20.1L33.4673 16.7167L23.5507 26.6333L18.534 21.7333L15.2673 25L23.5507 33.2833Z" fill="#001D6E"/>
</svg>
