<svg width="52" height="38" viewBox="0 0 52 38" fill="none" xmlns="http://www.w3.org/2000/svg">
<path d="M30.6673 21.3335C28.7229 21.3335 27.0701 20.6529 25.709 19.2918C24.3479 17.9307 23.6673 16.2779 23.6673 14.3335C23.6673 12.3891 24.3479 10.7363 25.709 9.37516C27.0701 8.01405 28.7229 7.3335 30.6673 7.3335C32.6118 7.3335 34.2645 8.01405 35.6257 9.37516C36.9868 10.7363 37.6673 12.3891 37.6673 14.3335C37.6673 16.2779 36.9868 17.9307 35.6257 19.2918C34.2645 20.6529 32.6118 21.3335 30.6673 21.3335ZM14.334 28.3335C13.0507 28.3335 11.952 27.8766 11.0382 26.9627C10.1243 26.0488 9.66732 24.9502 9.66732 23.6668V5.00016C9.66732 3.71683 10.1243 2.61822 11.0382 1.70433C11.952 0.79044 13.0507 0.333496 14.334 0.333496H47.0007C48.284 0.333496 49.3826 0.79044 50.2965 1.70433C51.2104 2.61822 51.6673 3.71683 51.6673 5.00016V23.6668C51.6673 24.9502 51.2104 26.0488 50.2965 26.9627C49.3826 27.8766 48.284 28.3335 47.0007 28.3335H14.334ZM19.0007 23.6668H42.334C42.334 22.3835 42.7909 21.2849 43.7048 20.371C44.6187 19.4571 45.7173 19.0002 47.0007 19.0002V9.66683C45.7173 9.66683 44.6187 9.20988 43.7048 8.296C42.7909 7.38211 42.334 6.2835 42.334 5.00016H19.0007C19.0007 6.2835 18.5437 7.38211 17.6298 8.296C16.7159 9.20988 15.6173 9.66683 14.334 9.66683V19.0002C15.6173 19.0002 16.7159 19.4571 17.6298 20.371C18.5437 21.2849 19.0007 22.3835 19.0007 23.6668ZM44.6673 37.6668H5.00065C3.71732 37.6668 2.61871 37.2099 1.70482 36.296C0.790929 35.3821 0.333984 34.2835 0.333984 33.0002V7.3335H5.00065V33.0002H44.6673V37.6668Z" fill="#001D6E"/>
</svg>
