<svg width="52" height="48" viewBox="0 0 52 48" fill="none" xmlns="http://www.w3.org/2000/svg">
<path d="M25.7089 42.6665C25.8644 42.6665 26.02 42.6276 26.1755 42.5498C26.3311 42.4721 26.4478 42.3943 26.5255 42.3165L45.6589 23.1832C46.1255 22.7165 46.4658 22.1915 46.6797 21.6082C46.8936 21.0248 47.0005 20.4415 47.0005 19.8582C47.0005 19.2359 46.8936 18.6429 46.6797 18.079C46.4658 17.5151 46.1255 17.0193 45.6589 16.5915L35.7422 6.67484C35.3144 6.20817 34.8186 5.86789 34.2547 5.654C33.6908 5.44011 33.0978 5.33317 32.4755 5.33317C31.8922 5.33317 31.3089 5.44011 30.7255 5.654C30.1422 5.86789 29.6172 6.20817 29.1505 6.67484L28.5089 7.3165L32.8255 11.6915C33.4089 12.2359 33.8367 12.8582 34.1089 13.5582C34.3811 14.2582 34.5172 14.9971 34.5172 15.7748C34.5172 17.4082 33.963 18.779 32.8547 19.8873C31.7464 20.9957 30.3755 21.5498 28.7422 21.5498C27.9644 21.5498 27.2158 21.4137 26.4964 21.1415C25.7769 20.8693 25.145 20.4609 24.6005 19.9165L20.2255 15.5998L10.0172 25.8082C9.90055 25.9248 9.81305 26.0512 9.75471 26.1873C9.69638 26.3234 9.66721 26.4693 9.66721 26.6248C9.66721 26.9359 9.78388 27.2179 10.0172 27.4707C10.2505 27.7234 10.5228 27.8498 10.8339 27.8498C10.9894 27.8498 11.145 27.8109 11.3005 27.7332C11.4561 27.6554 11.5728 27.5776 11.6505 27.4998L19.5839 19.5665L22.8505 22.8332L14.9755 30.7665C14.8589 30.8832 14.7714 31.0096 14.713 31.1457C14.6547 31.2818 14.6255 31.4276 14.6255 31.5832C14.6255 31.8943 14.7422 32.1665 14.9755 32.3998C15.2089 32.6332 15.4811 32.7498 15.7922 32.7498C15.9478 32.7498 16.1033 32.7109 16.2589 32.6332C16.4144 32.5554 16.5311 32.4776 16.6089 32.3998L24.5422 24.5248L27.8089 27.7915L19.9339 35.7248C19.8172 35.8026 19.7297 35.9193 19.6714 36.0748C19.613 36.2304 19.5839 36.3859 19.5839 36.5415C19.5839 36.8526 19.7005 37.1248 19.9339 37.3582C20.1672 37.5915 20.4394 37.7082 20.7505 37.7082C20.9061 37.7082 21.0519 37.679 21.188 37.6207C21.3242 37.5623 21.4505 37.4748 21.5672 37.3582L29.5005 29.4832L32.7672 32.7498L24.8339 40.6832C24.7172 40.7998 24.6297 40.9262 24.5714 41.0623C24.513 41.1984 24.4839 41.3443 24.4839 41.4998C24.4839 41.8109 24.6103 42.0832 24.863 42.3165C25.1158 42.5498 25.3978 42.6665 25.7089 42.6665ZM25.6505 47.3332C24.2117 47.3332 22.938 46.8568 21.8297 45.904C20.7214 44.9512 20.07 43.7554 19.8755 42.3165C18.5533 42.1221 17.445 41.5776 16.5505 40.6832C15.6561 39.7887 15.1117 38.6804 14.9172 37.3582C13.595 37.1637 12.4964 36.6096 11.6214 35.6957C10.7464 34.7818 10.2117 33.6832 10.0172 32.3998C8.53943 32.2054 7.33388 31.5637 6.40055 30.4748C5.46721 29.3859 5.00055 28.1026 5.00055 26.6248C5.00055 25.8471 5.14638 25.0984 5.43805 24.379C5.72971 23.6596 6.14777 23.0276 6.69221 22.4832L20.2255 9.00817L27.8672 16.6498C27.945 16.7665 28.0617 16.854 28.2172 16.9123C28.3728 16.9707 28.5283 16.9998 28.6839 16.9998C29.0339 16.9998 29.3255 16.8929 29.5589 16.679C29.7922 16.4651 29.9089 16.1832 29.9089 15.8332C29.9089 15.6776 29.8797 15.5221 29.8214 15.3665C29.763 15.2109 29.6755 15.0943 29.5589 15.0165L21.2172 6.67484C20.7894 6.20817 20.2936 5.86789 19.7297 5.654C19.1658 5.44011 18.5728 5.33317 17.9505 5.33317C17.3672 5.33317 16.7839 5.44011 16.2005 5.654C15.6172 5.86789 15.0922 6.20817 14.6255 6.67484L6.40055 14.9582C6.05055 15.3082 5.75888 15.7165 5.52555 16.1832C5.29221 16.6498 5.13666 17.1165 5.05888 17.5832C4.9811 18.0498 4.9811 18.5262 5.05888 19.0123C5.13666 19.4984 5.29221 19.9554 5.52555 20.3832L2.14221 23.7665C1.4811 22.8721 0.994991 21.8901 0.68388 20.8207C0.372769 19.7512 0.256102 18.6721 0.33388 17.5832C0.411658 16.4943 0.68388 15.4346 1.15055 14.404C1.61721 13.3734 2.25888 12.4498 3.07555 11.6332L11.3005 3.40817C12.2339 2.51373 13.2742 1.83317 14.4214 1.3665C15.5686 0.899837 16.745 0.666504 17.9505 0.666504C19.1561 0.666504 20.3325 0.899837 21.4797 1.3665C22.6269 1.83317 23.6478 2.51373 24.5422 3.40817L25.1839 4.04984L25.8255 3.40817C26.7589 2.51373 27.7992 1.83317 28.9464 1.3665C30.0936 0.899837 31.27 0.666504 32.4755 0.666504C33.6811 0.666504 34.8575 0.899837 36.0047 1.3665C37.1519 1.83317 38.1728 2.51373 39.0672 3.40817L48.9255 13.2665C49.82 14.1609 50.5005 15.1915 50.9672 16.3582C51.4339 17.5248 51.6672 18.7109 51.6672 19.9165C51.6672 21.1221 51.4339 22.2984 50.9672 23.4457C50.5005 24.5929 49.82 25.6137 48.9255 26.5082L29.7922 45.5832C29.2478 46.1276 28.6158 46.5554 27.8964 46.8665C27.1769 47.1776 26.4283 47.3332 25.6505 47.3332Z" fill="#001D6E"/>
</svg>
